<?xml version="1.0" encoding="UTF-8" standalone="no"?>
<!DOCTYPE svg PUBLIC "-//W3C//DTD SVG 1.1//EN" "http://www.w3.org/Graphics/SVG/1.1/DTD/svg11.dtd">
<svg width="100%" height="100%" viewBox="0 0 600 111" version="1.1" xmlns="http://www.w3.org/2000/svg" xmlns:xlink="http://www.w3.org/1999/xlink" xml:space="preserve" xmlns:serif="http://www.serif.com/" style="fill-rule:evenodd;clip-rule:evenodd;stroke-linejoin:round;stroke-miterlimit:2;">
    <g transform="matrix(1,0,0,1,-20,-267)">
        <path d="M45,349.7C31.7,349.7 23.3,344.6 20,341.7L26.4,332.2C28.3,333.6 34.5,338.7 45,338.7C54.4,338.7 60,333.6 60,327.6C60,319.3 50.8,316.4 41,311.8C30.6,306.9 22.2,301.4 22.2,288.5C22.2,275.1 34.1,267.2 48.2,267.2C61.3,267.2 68.5,271.5 71.7,273.8L65.5,283.4C62.6,281.5 56.7,278.3 48.7,278.3C41.1,278.3 35.9,282 35.9,288.4C35.9,295.3 42.6,298.1 51.2,301.8C62.3,306.7 74,312.1 74,327.2C74.1,340.6 62.7,349.7 45,349.7Z" style="fill:rgb(31,67,100);fill-rule:nonzero;"/>
    </g>
    <g transform="matrix(1,0,0,1,-20,-267)">
        <path d="M106,349.7C87.2,349.7 76.2,335.8 76.2,317.9C76.2,297.4 89.5,286.1 106.5,286.1C116.5,286.1 122.3,289.5 125.2,291.5L120.3,300.9C117.3,298.9 113.4,296.6 106.8,296.6C95.7,296.6 90.4,305.4 90.4,317.5C90.4,329.5 95.7,339 107.1,339C114.4,339 119.2,335.9 121.1,334.7L125.5,343.8C122.9,346 117,349.7 106,349.7Z" style="fill:rgb(31,67,100);fill-rule:nonzero;"/>
    </g>
    <g transform="matrix(1,0,0,1,-20,-267)">
        <path d="M136.1,282.6C131.6,282.6 128.1,279 128.1,274.8C128.1,270.5 131.6,267 136.1,267C140.7,267 144.2,270.6 144.2,274.8C144.2,279.1 140.7,282.6 136.1,282.6Z" style="fill:rgb(31,67,100);fill-rule:nonzero;"/>
    </g>
    <g transform="matrix(1,0,0,1,-20,-267)">
        <rect x="129.8" y="287.7" width="13.1" height="60.6" style="fill:rgb(31,67,100);"/>
    </g>
    <g transform="matrix(1,0,0,1,-20,-267)">
        <path d="M178.1,339.3C186.6,339.3 191.8,336.2 194.5,334.5L199.2,343.6C195.7,345.7 189.1,349.6 177.2,349.6C157.2,349.6 146.6,336.1 146.6,317.4C146.6,298.9 158.9,286 175.5,286C193.4,286 202.7,298.9 200.8,319.8L160.7,319.8C161.5,331 166.5,339.3 178.1,339.3ZM187.9,310.4C187.6,302.8 184.4,296.3 175.4,296.3C167.2,296.3 162.6,301.8 161.2,310.4L187.9,310.4Z" style="fill:rgb(31,67,100);fill-rule:nonzero;"/>
    </g>
    <g transform="matrix(1,0,0,1,-20,-267)">
        <path d="M242.5,348.2L242.5,308.2C242.5,301.4 240.1,297.6 233.1,297.6C225.4,297.6 219.6,305.1 218.3,306.7L218.3,348.2L204.8,348.2L204.8,287.6L218.1,287.6L218.1,295.7C221.1,292.1 227.3,286.1 237.7,286.1C250.8,286.1 255.9,294.6 255.9,305.4L255.9,348.2L242.5,348.2Z" style="fill:rgb(31,67,100);fill-rule:nonzero;"/>
    </g>
    <g transform="matrix(1,0,0,1,-20,-267)">
        <path d="M289.3,349.7C270.5,349.7 259.5,335.8 259.5,317.9C259.5,297.4 272.8,286.1 289.8,286.1C299.8,286.1 305.6,289.5 308.5,291.5L303.6,300.9C300.6,298.9 296.7,296.6 290.1,296.6C279,296.6 273.7,305.4 273.7,317.5C273.7,329.5 279,339 290.4,339C297.7,339 302.5,335.9 304.4,334.7L308.8,343.8C306.2,346 300.3,349.7 289.3,349.7Z" style="fill:rgb(31,67,100);fill-rule:nonzero;"/>
    </g>
    <g transform="matrix(1,0,0,1,-20,-267)">
        <path d="M336.7,339.3C345.2,339.3 350.3,336.2 353.1,334.5L357.8,343.6C354.3,345.7 347.7,349.6 335.8,349.6C315.8,349.6 305.2,336.1 305.2,317.4C305.2,298.9 317.5,286 334.1,286C352,286 361.3,298.9 359.4,319.8L319.3,319.8C320.1,331 325.1,339.3 336.7,339.3ZM346.5,310.4C346.2,302.8 343,296.3 334,296.3C325.8,296.3 321.2,301.8 319.8,310.4L346.5,310.4Z" style="fill:rgb(31,67,100);fill-rule:nonzero;"/>
    </g>
    <g transform="matrix(1,0,0,1,-20,-267)">
        <path d="M421.3,348.2L388.4,297.6C385.1,292.1 381.6,286.1 381.6,286.1C381.6,286.3 382.1,291.3 382.1,296L382.1,348.2L369.2,348.2L369.2,267.1L383.8,267.1L414.8,314.8C418.4,321.1 422.1,327.7 422.1,327.7C422.1,327.2 421.6,322 421.6,315.8L421.6,267.1L434.6,267.1L434.6,348.2L421.3,348.2Z" style="fill:rgb(31,67,100);fill-rule:nonzero;"/>
    </g>
    <g transform="matrix(1,0,0,1,-20,-267)">
        <path d="M469.9,339.2C478.4,339.2 483.6,336.1 486.3,334.4L491,343.5C487.5,345.6 480.9,349.5 469,349.5C449,349.5 438.4,336 438.4,317.3C438.4,298.8 450.7,285.9 467.3,285.9C485.2,285.9 494.5,298.8 492.6,319.7L452.5,319.7C453.3,330.8 458.3,339.2 469.9,339.2ZM479.7,310.3C479.4,302.7 476.2,296.2 467.2,296.2C459,296.2 454.4,301.7 453,310.3L479.7,310.3Z" style="fill:rgb(31,67,100);fill-rule:nonzero;"/>
    </g>
    <g transform="matrix(1,0,0,1,-20,-267)">
        <path d="M560.5,348.1L548.4,348.1L534.7,304.7L534.5,304.7L520.7,348.1L508.6,348.1L490.9,287.5L505.3,287.5L516.3,329.3L516.5,329.3L528.7,287.5L541.3,287.5L553.6,329.5L553.8,329.5L564.9,287.5L578.3,287.5L560.5,348.1Z" style="fill:rgb(31,67,100);fill-rule:nonzero;"/>
    </g>
    <g transform="matrix(1,0,0,1,-20,-267)">
        <path d="M596.9,349.7C586.9,349.7 580.1,346.4 576.3,343.8L581.2,334.3C583.5,335.9 589.3,339.3 596.2,339.3C603.2,339.3 607.3,336.8 607.3,332.3C607.3,327.5 601.6,325.9 592.8,321.9C583.8,317.9 577.8,313.4 577.8,303.8C577.8,293.3 586,286 599,286C609.4,286 615.6,289.8 618,291.3L612.7,300.6C610.4,299.1 605.7,296.5 599.4,296.5C593.2,296.5 590.2,299 590.2,303.1C590.2,308 595.5,309.6 602.3,312.4C612.2,316.4 620,320.8 620,331C620,342.9 611.2,349.7 596.9,349.7Z" style="fill:rgb(31,67,100);fill-rule:nonzero;"/>
    </g>
    <g transform="matrix(1,0,0,1,-20,-267)">
        <path d="M24.3,376.6L26.6,360.5L26.9,360.5L33.5,373.7L40,360.5L40.3,360.5L42.6,376.6L41,376.6L39.4,365.1L33.7,376.6L33.3,376.6L27.5,365L25.9,376.6L24.3,376.6Z" style="fill:rgb(153,153,153);fill-rule:nonzero;"/>
    </g>
    <g transform="matrix(1,0,0,1,-20,-267)">
        <path d="M52.5,360.5L60.1,376.6L58.3,376.6L55.7,371.3L48.7,371.3L46.2,376.6L44.4,376.6L52.1,360.5L52.5,360.5ZM52.3,364L49.5,369.8L55,369.8L52.3,364Z" style="fill:rgb(153,153,153);fill-rule:nonzero;"/>
    </g>
    <g transform="matrix(1,0,0,1,-20,-267)">
        <path d="M78.2,363.2L76.9,364.4C76,363.5 75,362.9 73.9,362.4C72.8,361.9 71.8,361.7 70.8,361.7C69.5,361.7 68.3,362 67.2,362.6C66,363.2 65.2,364.1 64.5,365.1C63.9,366.2 63.6,367.3 63.6,368.5C63.6,369.7 63.9,370.9 64.6,371.9C65.3,373 66.2,373.8 67.3,374.5C68.5,375.1 69.7,375.4 71.1,375.4C72.8,375.4 74.2,374.9 75.3,374C76.5,373.1 77.1,371.9 77.4,370.4L72.2,370.4L72.2,368.8L79.2,368.8C79.2,371.3 78.4,373.3 77,374.7C75.5,376.2 73.6,376.9 71.1,376.9C68.1,376.9 65.7,375.9 64,373.9C62.7,372.3 62,370.5 62,368.5C62,367 62.4,365.6 63.2,364.2C64,362.9 65,361.9 66.4,361.1C67.7,360.4 69.3,360 71,360C72.4,360 73.7,360.2 74.9,360.7C75.9,361.4 77,362.1 78.2,363.2Z" style="fill:rgb(153,153,153);fill-rule:nonzero;"/>
    </g>
    <g transform="matrix(1,0,0,1,-20,-267)">
        <path d="M88.9,360.5L96.5,376.6L94.7,376.6L92.1,371.3L85.1,371.3L82.6,376.6L80.8,376.6L88.5,360.5L88.9,360.5ZM88.7,364L85.9,369.8L91.4,369.8L88.7,364Z" style="fill:rgb(153,153,153);fill-rule:nonzero;"/>
    </g>
    <g transform="matrix(1,0,0,1,-20,-267)">
        <path d="M98.3,362.1L98.3,360.6L106.9,360.6L100.1,375.1L106.5,375.1L106.5,376.7L97.6,376.7L104.4,362.2L98.3,362.1Z" style="fill:rgb(153,153,153);fill-rule:nonzero;"/>
    </g>
    <g transform="matrix(1,0,0,1,-20,-267)">
        <rect x="109.6" y="360.5" width="1.6" height="16.1" style="fill:rgb(153,153,153);fill-rule:nonzero;"/>
    </g>
    <g transform="matrix(1,0,0,1,-20,-267)">
        <path d="M114.9,376.6L114.9,360.5L115.3,360.5L126.1,372.8L126.1,360.5L127.7,360.5L127.7,376.6L127.3,376.6L116.6,364.4L116.6,376.6L114.9,376.6Z" style="fill:rgb(153,153,153);fill-rule:nonzero;"/>
    </g>
    <g transform="matrix(1,0,0,1,-20,-267)">
        <path d="M131.6,360.5L140.9,360.5L140.9,362.1L133.2,362.1L133.2,367.1L140.8,367.1L140.8,368.7L133.2,368.7L133.2,375L140.8,375L140.8,376.6L131.6,376.6L131.6,360.5Z" style="fill:rgb(153,153,153);fill-rule:nonzero;"/>
    </g>
    <g transform="matrix(1,0,0,1,-20,-267)">
        <path d="M157.7,360.1C160.2,360.1 162.2,360.9 163.9,362.5C165.6,364.1 166.4,366.1 166.4,368.5C166.4,370.8 165.6,372.8 163.9,374.5C162.2,376.1 160.2,377 157.9,377C155.5,377 153.5,376.2 151.8,374.6C150.1,373 149.3,371 149.3,368.7C149.3,367.2 149.7,365.7 150.4,364.4C151.2,363.1 152.2,362.1 153.5,361.3C154.8,360.5 156.2,360.1 157.7,360.1ZM157.8,361.7C156.6,361.7 155.5,362 154.4,362.6C153.3,363.2 152.5,364.1 151.9,365.1C151.3,366.1 151,367.3 151,368.6C151,370.5 151.7,372.1 153,373.4C154.3,374.7 155.9,375.4 157.8,375.4C159.1,375.4 160.2,375.1 161.3,374.5C162.4,373.9 163.2,373.1 163.8,372C164.4,371 164.7,369.8 164.7,368.5C164.7,367.2 164.4,366.1 163.8,365C163.2,364 162.4,363.1 161.3,362.5C160.1,362 159,361.7 157.8,361.7Z" style="fill:rgb(153,153,153);fill-rule:nonzero;"/>
    </g>
    <g transform="matrix(1,0,0,1,-20,-267)">
        <path d="M169.6,360.5L177.7,360.5L177.7,362.1L171.2,362.1L171.2,367.1L177.7,367.1L177.7,368.7L171.2,368.7L171.2,376.6L169.6,376.6L169.6,360.5Z" style="fill:rgb(153,153,153);fill-rule:nonzero;"/>
    </g>
    <g transform="matrix(1,0,0,1,-20,-267)">
        <path d="M185.2,362.1L185.2,360.5L194.1,360.5L194.1,362.1L190.5,362.1L190.5,376.6L188.8,376.6L188.8,362.1L185.2,362.1Z" style="fill:rgb(153,153,153);fill-rule:nonzero;"/>
    </g>
    <g transform="matrix(1,0,0,1,-20,-267)">
        <path d="M196.4,360.5L198,360.5L198,367.2L206.3,367.2L206.3,360.5L207.9,360.5L207.9,376.6L206.3,376.6L206.3,368.8L198,368.8L198,376.6L196.4,376.6L196.4,360.5Z" style="fill:rgb(153,153,153);fill-rule:nonzero;"/>
    </g>
    <g transform="matrix(1,0,0,1,-20,-267)">
        <path d="M211.8,360.5L221.1,360.5L221.1,362.1L213.4,362.1L213.4,367.1L221,367.1L221,368.7L213.4,368.7L213.4,375L221,375L221,376.6L211.8,376.6L211.8,360.5Z" style="fill:rgb(153,153,153);fill-rule:nonzero;"/>
    </g>
    <g transform="matrix(1,0,0,1,-20,-267)">
        <path d="M228.5,373.6L229.9,372.8C230.9,374.6 232,375.4 233.3,375.4C233.8,375.4 234.4,375.3 234.8,375C235.3,374.7 235.6,374.4 235.9,374C236.1,373.6 236.3,373.1 236.3,372.7C236.3,372.2 236.1,371.6 235.7,371.1C235.2,370.4 234.3,369.5 232.9,368.5C231.5,367.5 230.7,366.8 230.4,366.3C229.8,365.5 229.5,364.7 229.5,363.8C229.5,363.1 229.7,362.5 230,361.9C230.3,361.3 230.8,360.9 231.4,360.5C232,360.2 232.7,360 233.4,360C234.2,360 234.9,360.2 235.5,360.6C236.2,361 236.9,361.7 237.6,362.7L236.3,363.7C235.7,362.9 235.2,362.4 234.7,362.1C234.3,361.8 233.8,361.7 233.3,361.7C232.6,361.7 232.1,361.9 231.7,362.3C231.3,362.7 231.1,363.2 231.1,363.8C231.1,364.1 231.2,364.5 231.3,364.8C231.4,365.1 231.7,365.5 232.1,365.9C232.3,366.1 233,366.6 234.2,367.5C235.6,368.5 236.6,369.4 237.1,370.2C237.6,371 237.9,371.8 237.9,372.6C237.9,373.8 237.5,374.8 236.6,375.6C235.7,376.5 234.6,376.9 233.3,376.9C232.3,376.9 231.4,376.6 230.6,376.1C229.9,375.7 229.2,374.8 228.5,373.6Z" style="fill:rgb(153,153,153);fill-rule:nonzero;"/>
    </g>
    <g transform="matrix(1,0,0,1,-20,-267)">
        <path d="M249.2,360.1C251.7,360.1 253.7,360.9 255.4,362.5C257.1,364.1 257.9,366.1 257.9,368.5C257.9,370.8 257.1,372.8 255.4,374.5C253.7,376.1 251.7,377 249.4,377C247,377 245,376.2 243.3,374.6C241.6,373 240.8,371 240.8,368.7C240.8,367.2 241.2,365.7 241.9,364.4C242.7,363.1 243.7,362.1 245,361.3C246.2,360.5 247.7,360.1 249.2,360.1ZM249.2,361.7C248,361.7 246.9,362 245.8,362.6C244.7,363.2 243.9,364.1 243.3,365.1C242.7,366.1 242.4,367.3 242.4,368.6C242.4,370.5 243.1,372.1 244.4,373.4C245.7,374.7 247.3,375.4 249.2,375.4C250.5,375.4 251.6,375.1 252.7,374.5C253.8,373.9 254.6,373.1 255.2,372C255.8,371 256.1,369.8 256.1,368.5C256.1,367.2 255.8,366.1 255.2,365C254.6,364 253.8,363.1 252.7,362.5C251.6,362 250.5,361.7 249.2,361.7Z" style="fill:rgb(153,153,153);fill-rule:nonzero;"/>
    </g>
    <g transform="matrix(1,0,0,1,-20,-267)">
        <path d="M276.2,363.5L274.9,364.5C274.2,363.6 273.3,362.9 272.4,362.4C271.4,361.9 270.3,361.7 269.1,361.7C267.8,361.7 266.6,362 265.5,362.6C264.4,363.2 263.5,364 262.9,365.1C262.3,366.1 262,367.3 262,368.6C262,370.6 262.7,372.2 264,373.5C265.4,374.8 267.1,375.5 269.1,375.5C271.4,375.5 273.3,374.6 274.8,372.9L276.1,373.9C275.3,374.9 274.3,375.7 273.1,376.3C271.9,376.9 270.5,377.1 269,377.1C266.2,377.1 263.9,376.2 262.3,374.3C260.9,372.7 260.2,370.8 260.2,368.6C260.2,366.2 261,364.3 262.7,362.7C264.4,361.1 266.5,360.3 269,360.3C270.5,360.3 271.9,360.6 273.1,361.2C274.4,361.6 275.4,362.4 276.2,363.5Z" style="fill:rgb(153,153,153);fill-rule:nonzero;"/>
    </g>
    <g transform="matrix(1,0,0,1,-20,-267)">
        <rect x="279.2" y="360.5" width="1.6" height="16.1" style="fill:rgb(153,153,153);fill-rule:nonzero;"/>
    </g>
    <g transform="matrix(1,0,0,1,-20,-267)">
        <path d="M284.6,360.5L293.9,360.5L293.9,362.1L286.2,362.1L286.2,367.1L293.8,367.1L293.8,368.7L286.2,368.7L286.2,375L293.8,375L293.8,376.6L284.6,376.6L284.6,360.5Z" style="fill:rgb(153,153,153);fill-rule:nonzero;"/>
    </g>
    <g transform="matrix(1,0,0,1,-20,-267)">
        <path d="M295,362.1L295,360.5L303.9,360.5L303.9,362.1L300.3,362.1L300.3,376.6L298.6,376.6L298.6,362.1L295,362.1Z" style="fill:rgb(153,153,153);fill-rule:nonzero;"/>
    </g>
    <g transform="matrix(1,0,0,1,-20,-267)">
        <path d="M305,360.5L306.9,360.5L311,367.1L315.1,360.5L317,360.5L311.9,368.9L311.9,376.6L310.3,376.6L310.3,368.9L305,360.5Z" style="fill:rgb(153,153,153);fill-rule:nonzero;"/>
    </g>
    <g transform="matrix(1,0,0,1,-20,-267)">
        <path d="M325.9,360.5L334,360.5L334,362.1L327.5,362.1L327.5,367.1L334,367.1L334,368.7L327.5,368.7L327.5,376.6L325.9,376.6L325.9,360.5Z" style="fill:rgb(153,153,153);fill-rule:nonzero;"/>
    </g>
    <g transform="matrix(1,0,0,1,-20,-267)">
        <path d="M344.6,360.1C347.1,360.1 349.1,360.9 350.8,362.5C352.5,364.1 353.3,366.1 353.3,368.5C353.3,370.8 352.5,372.8 350.8,374.5C349.1,376.1 347.1,377 344.8,377C342.4,377 340.4,376.2 338.7,374.6C337,373 336.2,371 336.2,368.7C336.2,367.2 336.6,365.7 337.3,364.4C338.1,363.1 339.1,362.1 340.4,361.3C341.6,360.5 343,360.1 344.6,360.1ZM344.6,361.7C343.4,361.7 342.3,362 341.2,362.6C340.1,363.2 339.3,364.1 338.7,365.1C338.1,366.1 337.8,367.3 337.8,368.6C337.8,370.5 338.5,372.1 339.8,373.4C341.1,374.7 342.7,375.4 344.6,375.4C345.9,375.4 347,375.1 348.1,374.5C349.2,373.9 350,373.1 350.6,372C351.2,371 351.5,369.8 351.5,368.5C351.5,367.2 351.2,366.1 350.6,365C350,363.9 349.2,363.1 348.1,362.5C347,362 345.9,361.7 344.6,361.7Z" style="fill:rgb(153,153,153);fill-rule:nonzero;"/>
    </g>
    <g transform="matrix(1,0,0,1,-20,-267)">
        <path d="M356.6,360.5L359.8,360.5C361.6,360.5 362.8,360.6 363.5,360.7C364.5,360.9 365.2,361.4 365.9,362.1C366.5,362.8 366.8,363.7 366.8,364.8C366.8,365.7 366.6,366.4 366.2,367.1C365.8,367.8 365.2,368.3 364.4,368.6C363.6,368.9 362.6,369.1 361.2,369.1L367,376.6L365,376.6L359.2,369.1L358.3,369.1L358.3,376.6L356.7,376.6L356.6,360.5ZM358.2,362.1L358.2,367.6L361,367.6C362.1,367.6 362.9,367.5 363.4,367.3C363.9,367.1 364.3,366.8 364.6,366.3C364.9,365.9 365,365.4 365,364.8C365,364.3 364.9,363.8 364.6,363.3C364.3,362.9 363.9,362.5 363.4,362.4C362.9,362.2 362.1,362.1 361,362.1L358.2,362.1Z" style="fill:rgb(153,153,153);fill-rule:nonzero;"/>
    </g>
    <g transform="matrix(1,0,0,1,-20,-267)">
        <path d="M374.8,373.6L376.2,372.8C377.2,374.6 378.3,375.4 379.6,375.4C380.1,375.4 380.7,375.3 381.1,375C381.6,374.7 381.9,374.4 382.2,374C382.5,373.6 382.6,373.1 382.6,372.7C382.6,372.2 382.4,371.6 382.1,371.1C381.6,370.4 380.7,369.5 379.3,368.5C377.9,367.5 377.1,366.8 376.8,366.3C376.2,365.5 375.9,364.7 375.9,363.8C375.9,363.1 376.1,362.5 376.4,361.9C376.7,361.3 377.2,360.9 377.8,360.5C378.4,360.2 379.1,360 379.8,360C380.6,360 381.3,360.2 381.9,360.6C382.6,361 383.3,361.7 384,362.7L382.7,363.7C382.1,362.9 381.6,362.4 381.1,362.1C380.7,361.8 380.2,361.7 379.7,361.7C379,361.7 378.5,361.9 378.1,362.3C377.7,362.7 377.5,363.2 377.5,363.8C377.5,364.1 377.6,364.5 377.7,364.8C377.8,365.1 378.1,365.5 378.5,365.9C378.7,366.1 379.4,366.6 380.6,367.5C382,368.5 383,369.4 383.5,370.2C384,371 384.3,371.8 384.3,372.6C384.3,373.8 383.9,374.8 383,375.6C382.1,376.5 381,376.9 379.7,376.9C378.7,376.9 377.8,376.6 377,376.1C376.2,375.7 375.4,374.8 374.8,373.6Z" style="fill:rgb(153,153,153);fill-rule:nonzero;"/>
    </g>
    <g transform="matrix(1,0,0,1,-20,-267)">
        <path d="M402.8,363.5L401.5,364.5C400.8,363.6 399.9,362.9 399,362.4C398,361.9 396.9,361.7 395.7,361.7C394.4,361.7 393.2,362 392.1,362.6C391,363.2 390.1,364 389.5,365.1C388.9,366.1 388.6,367.3 388.6,368.6C388.6,370.6 389.3,372.2 390.6,373.5C392,374.8 393.7,375.5 395.7,375.5C398,375.5 399.9,374.6 401.4,372.9L402.7,373.9C401.9,374.9 400.9,375.7 399.7,376.3C398.5,376.9 397.1,377.1 395.7,377.1C392.9,377.1 390.6,376.2 389,374.3C387.6,372.7 386.9,370.8 386.9,368.6C386.9,366.2 387.7,364.3 389.4,362.7C391.1,361.1 393.1,360.3 395.7,360.3C397.2,360.3 398.6,360.6 399.8,361.2C401,361.6 402,362.4 402.8,363.5Z" style="fill:rgb(153,153,153);fill-rule:nonzero;"/>
    </g>
    <g transform="matrix(1,0,0,1,-20,-267)">
        <rect x="405.8" y="360.5" width="1.6" height="16.1" style="fill:rgb(153,153,153);fill-rule:nonzero;"/>
    </g>
    <g transform="matrix(1,0,0,1,-20,-267)">
        <path d="M411.1,360.5L420.4,360.5L420.4,362.1L412.7,362.1L412.7,367.1L420.3,367.1L420.3,368.7L412.7,368.7L412.7,375L420.3,375L420.3,376.6L411.1,376.6L411.1,360.5Z" style="fill:rgb(153,153,153);fill-rule:nonzero;"/>
    </g>
    <g transform="matrix(1,0,0,1,-20,-267)">
        <path d="M423.3,376.6L423.3,360.5L423.7,360.5L434.5,372.8L434.5,360.5L436.1,360.5L436.1,376.6L435.7,376.6L425,364.4L425,376.6L423.3,376.6Z" style="fill:rgb(153,153,153);fill-rule:nonzero;"/>
    </g>
    <g transform="matrix(1,0,0,1,-20,-267)">
        <path d="M455.1,363.5L453.8,364.5C453.1,363.6 452.2,362.9 451.3,362.4C450.3,361.9 449.2,361.7 448,361.7C446.7,361.7 445.5,362 444.4,362.6C443.3,363.2 442.4,364 441.8,365.1C441.2,366.1 440.9,367.3 440.9,368.6C440.9,370.6 441.6,372.2 442.9,373.5C444.3,374.8 446,375.5 448,375.5C450.3,375.5 452.2,374.6 453.7,372.9L455,373.9C454.2,374.9 453.2,375.7 452,376.3C450.8,376.9 449.4,377.1 447.9,377.1C445.1,377.1 442.8,376.2 441.2,374.3C439.8,372.7 439.1,370.8 439.1,368.6C439.1,366.2 439.9,364.3 441.6,362.7C443.3,361.1 445.4,360.3 447.9,360.3C449.4,360.3 450.8,360.6 452,361.2C453.3,361.6 454.3,362.4 455.1,363.5Z" style="fill:rgb(153,153,153);fill-rule:nonzero;"/>
    </g>
    <g transform="matrix(1,0,0,1,-20,-267)">
        <path d="M458.3,360.5L467.6,360.5L467.6,362.1L459.9,362.1L459.9,367.1L467.5,367.1L467.5,368.7L459.9,368.7L459.9,375L467.5,375L467.5,376.6L458.3,376.6L458.3,360.5Z" style="fill:rgb(153,153,153);fill-rule:nonzero;"/>
    </g>
    <g transform="matrix(1,0,0,1,-20,-267)">
        <path d="M489,370.7L490.1,371.9C489.4,372.5 488.7,373.1 488.1,373.5C488.5,373.9 489.1,374.5 489.8,375.2C490.4,375.7 490.8,376.3 491.2,376.7L489,376.7L486.8,374.5C485.5,375.6 484.3,376.3 483.5,376.6C482.7,376.9 481.8,377.1 480.8,377.1C479.5,377.1 478.5,376.7 477.8,376C477,375.3 476.7,374.4 476.7,373.3C476.7,372.5 477,371.7 477.5,370.9C478,370.1 479.1,369.1 480.6,367.8C479.7,366.7 479.1,366 478.9,365.5C478.6,365 478.5,364.5 478.5,364.1C478.5,363.3 478.8,362.6 479.4,362.1C480.1,361.5 481,361.2 482.1,361.2C482.8,361.2 483.4,361.3 484,361.6C484.6,361.9 485,362.2 485.3,362.7C485.6,363.2 485.7,363.6 485.7,364.2C485.7,364.7 485.5,365.3 485.1,365.9C484.7,366.5 484,367.3 482.8,368.2L486.9,372.3C487.8,371.6 488.5,371.1 489,370.7ZM481.6,369C480.2,370 479.3,370.8 478.9,371.5C478.5,372.1 478.3,372.7 478.3,373.2C478.3,373.8 478.6,374.4 479.1,374.8C479.6,375.3 480.3,375.5 481,375.5C481.6,375.5 482.1,375.4 482.7,375.2C483.6,374.8 484.6,374.2 485.7,373.3L483.1,370.7C482.7,370.2 482.2,369.6 481.6,369ZM481.8,366.9C482.6,366.3 483.2,365.7 483.6,365.1C483.9,364.7 484,364.3 484,364C484,363.6 483.8,363.3 483.5,363C483.1,362.7 482.6,362.6 482,362.6C481.4,362.6 481,362.7 480.6,363C480.2,363.3 480.1,363.6 480.1,364C480.1,364.3 480.2,364.6 480.3,364.8C480.7,365.5 481.2,366.2 481.8,366.9Z" style="fill:rgb(153,153,153);fill-rule:nonzero;"/>
    </g>
    <g transform="matrix(1,0,0,1,-20,-267)">
        <path d="M498.4,362.1L498.4,360.5L507.3,360.5L507.3,362.1L503.7,362.1L503.7,376.6L502,376.6L502,362.1L498.4,362.1Z" style="fill:rgb(153,153,153);fill-rule:nonzero;"/>
    </g>
    <g transform="matrix(1,0,0,1,-20,-267)">
        <path d="M509.6,360.5L511.2,360.5L511.2,367.2L519.5,367.2L519.5,360.5L521.1,360.5L521.1,376.6L519.5,376.6L519.5,368.8L511.2,368.8L511.2,376.6L509.6,376.6L509.6,360.5Z" style="fill:rgb(153,153,153);fill-rule:nonzero;"/>
    </g>
    <g transform="matrix(1,0,0,1,-20,-267)">
        <path d="M525.1,360.5L534.4,360.5L534.4,362.1L526.7,362.1L526.7,367.1L534.3,367.1L534.3,368.7L526.7,368.7L526.7,375L534.3,375L534.3,376.6L525.1,376.6L525.1,360.5Z" style="fill:rgb(153,153,153);fill-rule:nonzero;"/>
    </g>
    <g transform="matrix(1,0,0,1,-20,-267)">
        <path d="M543.4,360.5L546.6,360.5C548.4,360.5 549.7,360.6 550.3,360.7C551.2,360.9 552,361.4 552.6,362.1C553.2,362.8 553.5,363.7 553.5,364.7C553.5,365.8 553.2,366.7 552.6,367.3C552,368 551.2,368.5 550.2,368.7C549.5,368.9 548.1,369 546.1,369L545,369L545,376.5L543.4,376.5L543.4,360.5ZM545,362.1L545,367.5L547.7,367.5C548.8,367.5 549.6,367.4 550.1,367.2C550.6,367 551,366.7 551.3,366.2C551.6,365.8 551.7,365.3 551.7,364.7C551.7,364.2 551.6,363.7 551.3,363.2C551,362.8 550.6,362.4 550.1,362.2C549.6,362 548.8,361.9 547.7,361.9C547.9,362.1 545,362.1 545,362.1Z" style="fill:rgb(153,153,153);fill-rule:nonzero;"/>
    </g>
    <g transform="matrix(1,0,0,1,-20,-267)">
        <path d="M556.8,360.5L558.4,360.5L558.4,370.2C558.4,371.3 558.4,372.1 558.5,372.3C558.6,372.9 558.8,373.5 559.1,373.9C559.4,374.3 559.8,374.7 560.5,375C561.1,375.3 561.7,375.4 562.3,375.4C562.8,375.4 563.4,375.3 563.8,375.1C564.3,374.9 564.7,374.6 565,374.2C565.3,373.8 565.6,373.3 565.7,372.8C565.8,372.4 565.9,371.6 565.9,370.3L565.9,360.6L567.5,360.6L567.5,370.3C567.5,371.7 567.4,372.9 567.1,373.8C566.8,374.7 566.2,375.5 565.4,376.1C564.6,376.8 563.5,377.1 562.3,377.1C561,377.1 559.9,376.8 558.9,376.2C558,375.6 557.3,374.8 557,373.7C556.8,373.1 556.7,371.9 556.7,370.3L556.8,360.5Z" style="fill:rgb(153,153,153);fill-rule:nonzero;"/>
    </g>
    <g transform="matrix(1,0,0,1,-20,-267)">
        <path d="M571.6,360.5L574.8,360.5C576.1,360.5 577.1,360.7 577.8,361C578.5,361.3 579,361.8 579.4,362.4C579.8,363 580,363.7 580,364.5C580,365.2 579.8,365.9 579.5,366.5C579.2,367.1 578.6,367.6 578,367.9C578.8,368.2 579.5,368.5 579.9,368.9C580.4,369.3 580.7,369.7 581,370.3C581.3,370.8 581.4,371.4 581.4,372.1C581.4,373.4 580.9,374.5 580,375.4C579,376.3 577.8,376.7 576.2,376.7L571.7,376.7L571.6,360.5ZM573.2,362.1L573.2,367.2L574.1,367.2C575.2,367.2 576.1,367.1 576.6,366.9C577.1,366.7 577.5,366.4 577.9,365.9C578.2,365.4 578.4,365 578.4,364.4C578.4,363.7 578.1,363.1 577.6,362.7C577.1,362.3 576.3,362.1 575.1,362.1L573.2,362.1ZM573.2,368.9L573.2,375.1L575.2,375.1C576.4,375.1 577.3,375 577.8,374.8C578.4,374.6 578.8,374.2 579.1,373.7C579.4,373.2 579.6,372.7 579.6,372.1C579.6,371.4 579.4,370.8 578.9,370.2C578.4,369.7 577.8,369.3 577,369.1C576.5,369 575.5,368.9 574.1,368.9L573.2,368.9Z" style="fill:rgb(153,153,153);fill-rule:nonzero;"/>
    </g>
    <g transform="matrix(1,0,0,1,-20,-267)">
        <path d="M584.6,360.5L586.2,360.5L586.2,375L592.4,375L592.4,376.6L584.5,376.6L584.5,360.5L584.6,360.5Z" style="fill:rgb(153,153,153);fill-rule:nonzero;"/>
    </g>
    <g transform="matrix(1,0,0,1,-20,-267)">
        <rect x="594.8" y="360.5" width="1.6" height="16.1" style="fill:rgb(153,153,153);fill-rule:nonzero;"/>
    </g>
    <g transform="matrix(1,0,0,1,-20,-267)">
        <path d="M615.2,363.5L613.9,364.5C613.2,363.6 612.3,362.9 611.4,362.4C610.4,361.9 609.3,361.7 608.1,361.7C606.8,361.7 605.6,362 604.5,362.6C603.4,363.2 602.5,364 601.9,365.1C601.3,366.1 601,367.3 601,368.6C601,370.6 601.7,372.2 603,373.5C604.4,374.8 606.1,375.5 608.1,375.5C610.4,375.5 612.3,374.6 613.8,372.9L615.1,373.9C614.3,374.9 613.3,375.7 612.1,376.3C610.9,376.9 609.5,377.1 608,377.1C605.2,377.1 602.9,376.2 601.3,374.3C599.9,372.7 599.2,370.8 599.2,368.6C599.2,366.2 600,364.3 601.7,362.7C603.4,361.1 605.5,360.3 608,360.3C609.5,360.3 610.9,360.6 612.1,361.2C613.4,361.6 614.4,362.4 615.2,363.5Z" style="fill:rgb(153,153,153);fill-rule:nonzero;"/>
    </g>
</svg>
